<?xml version="1.0" encoding="UTF-8"?>
<svg width="383px" height="180px" viewBox="0 0 383 180" version="1.1" xmlns="http://www.w3.org/2000/svg" xmlns:xlink="http://www.w3.org/1999/xlink">
    <!-- Generator: sketchtool 61.1 (101010) - https://sketch.com -->
    <!-- <title>F96D7710-B5AF-4E11-9F0C-92DA9E47B5D2</title> -->
    <desc>Created with sketchtool.</desc>
    <g id="All-Screens" stroke="none" stroke-width="1" fill="none" fill-rule="evenodd">
        <g id="Error-page" transform="translate(-517.000000, -148.000000)" fill-rule="nonzero">
            <g id="Group-4" transform="translate(517.000000, 148.000000)">
                <g id="Group" opacity="0.12" fill="#212121">
                    <path d="M88.62552,76.7931041 L59.2023001,76.7931041 L59.2023001,120.927072 L33.4580602,120.927072 L59.2023001,6.47355661 L29.7790802,2.98883482e-12 L0.355860292,132.401904 C-0.630258052,136.799785 0.459299279,141.404543 3.29869948,144.905953 C6.16740739,148.452186 10.5066729,150.452007 15.0683322,150.348568 L59.2023001,150.348568 L59.2023001,179.771788 L88.62552,179.771788 L88.62552,150.348568 L103.336268,150.348568 L103.336268,120.925348 L88.62552,120.925348 L88.62552,76.7931041 L88.62552,76.7931041 Z" id="Path"></path>
                    <path d="M191.605928,3.23591631 C159.108846,3.23591631 132.761212,29.5835503 132.761212,62.0806321 L132.761212,120.925348 C132.761212,153.42243 159.108846,179.770064 191.605928,179.770064 C224.103009,179.770064 250.450643,153.42243 250.450643,120.925348 L250.450643,62.0806321 C250.450643,29.5835503 224.103009,3.23591631 191.605928,3.23591631 Z M221.027424,120.927072 C221.027424,137.182509 207.861364,150.350292 191.604204,150.350292 C175.348767,150.350292 162.180984,137.184233 162.180984,120.927072 L162.180984,62.0823561 C162.180984,45.8269193 175.347043,32.6591362 191.604204,32.6591362 C207.85964,32.6591362 221.027424,45.8251953 221.027424,62.0823561 L221.027424,120.927072 Z" id="Shape"></path>
                    <path d="M368.141799,76.7931041 L338.718579,76.7931041 L338.718579,120.927072 L312.974339,120.927072 L338.718579,6.47355661 L309.295359,2.98883482e-12 L279.872139,132.401904 C278.886021,136.799785 279.975578,141.404543 282.814979,144.905953 C285.683686,148.452186 290.022952,150.452007 294.584611,150.348568 L338.718579,150.348568 L338.718579,179.771788 L368.141799,179.771788 L368.141799,150.348568 L382.852547,150.348568 L382.852547,120.925348 L368.141799,120.925348 L368.141799,76.7931041 Z" id="Path"></path>
                </g>
                <g id="Group-3" transform="translate(147.000000, 68.000000)">
                    <path d="M1.47849546,73.6238218 L1.47849546,73.6238218 C1.48005391,72.8155101 1.68836559,72.0220902 2.08438291,71.3187135 L40.2663743,3.92390835 C41.1174565,2.40633259 42.7236903,1.46815077 44.462911,1.47108759 L44.462911,1.47108759 C46.2050756,1.47559666 47.8113093,2.41083476 48.6741665,3.92390835 L86.5754652,71.3336053 C86.9728678,72.0310945 87.1827379,72.8201854 87.1813594,73.6239949 L87.1813594,73.6239949 C87.1813594,76.2113542 85.0845561,78.3081508 82.4971968,78.3081508 L6.16265131,78.3081508 C3.57667728,78.3081508 1.47849546,76.2111811 1.47849546,73.6238218 Z" id="Path" fill="#FFBD3B"></path>
                    <path d="M86.5754652,71.3334322 L62.578582,28.6594928 C54.6599673,49.8738651 39.3339067,67.5079776 19.4317422,78.3079776 L82.4971968,78.3079776 C85.0845561,78.3079776 87.1813595,76.2111811 87.1813595,73.6238218 L87.1813595,73.6238218 C87.1827379,72.8200122 86.9744262,72.0309213 86.5754652,71.3334322 Z" id="Path" fill="#F5AD20"></path>
                    <path d="M49.9597076,3.19975251 C48.241266,0.167717873 44.3919154,-0.89617823 41.3598807,0.820704886 C40.3669803,1.38364861 39.54395,2.20529363 38.9808331,3.19975251 L0.798841784,70.5947309 C0.292001957,71.4989733 0.0185820436,72.5142114 0.000454690724,73.5500555 C-0.0404655754,76.9529993 2.68576819,79.7443413 6.08871191,79.7857478 C6.11382014,79.7857478 6.13892836,79.7857478 6.16265131,79.7857478 L82.4971968,79.7857478 C85.8913093,79.7945577 88.6514825,77.0491032 88.6589518,73.6536053 C88.6618721,72.5867655 88.3870669,71.537588 87.8610063,70.6096226 L49.9597076,3.19975251 Z M80.3114526,74.8874697 L8.3483652,74.8874697 C6.67952391,74.8846807 5.32835504,73.5225407 5.32966005,71.845417 C5.33113019,71.3274986 5.46335766,70.817947 5.71556932,70.3656503 L41.7109888,6.50108261 C42.5634478,4.97800561 44.4830316,4.43761185 45.9987502,5.29430165 C46.5017043,5.57844311 46.91667,5.99563234 47.1995715,6.50108261 L82.9442485,70.3658143 C83.7591615,71.83016 83.2395565,73.6808528 81.7839116,74.4998101 C81.3338485,74.7531095 80.8268133,74.8861572 80.3114526,74.8874697 Z" id="Shape" fill="#212121"></path>
                    <g id="Group-2" transform="translate(42.000400, 30.892566)" fill="#212121">
                        <rect id="Rectangle" x="7.96833499e-13" y="-2.32068333e-13" width="4.36262214" height="21.8125995"></rect>
                        <rect id="Rectangle" x="7.96833499e-13" y="26.1752216" width="4.36262214" height="4.36262214"></rect>
                    </g>
                </g>
            </g>
        </g>
    </g>
</svg>